<?xml version="1.0" encoding="UTF-8"?><svg xmlns="http://www.w3.org/2000/svg" xmlns:xlink="http://www.w3.org/1999/xlink" fill-opacity="1" color-rendering="auto" color-interpolation="auto" text-rendering="auto" stroke="black" stroke-linecap="square" width="1105" stroke-miterlimit="10" shape-rendering="auto" stroke-opacity="1" fill="black" stroke-dasharray="none" font-weight="normal" stroke-width="1" height="803" font-family="'Dialog'" font-style="normal" stroke-linejoin="miter" font-size="12px" stroke-dashoffset="0" image-rendering="auto">
  <!--Generated by ySVG 2.5-->
  <defs id="genericDefs"/>
  <g>
    <defs id="defs1">
      <clipPath clipPathUnits="userSpaceOnUse" id="clipPath1">
        <path d="M0 0 L1105 0 L1105 803 L0 803 L0 0 Z"/>
      </clipPath>
      <clipPath clipPathUnits="userSpaceOnUse" id="clipPath2">
        <path d="M332 -58 L1524 -58 L1524 808.2226 L332 808.2226 L332 -58 Z"/>
      </clipPath>
    </defs>
    <g stroke-linecap="butt" transform="matrix(0.927,0,0,0.927,-307.7685,53.7668)" fill="red" text-rendering="geometricPrecision" shape-rendering="geometricPrecision" stroke-dasharray="6,2" stroke="red" stroke-miterlimit="1.45">
      <rect fill="none" x="999.8344" width="167.68" height="12.4968" y="457.4259" clip-path="url(#clipPath2)"/>
    </g>
    <g text-rendering="geometricPrecision" stroke-miterlimit="1.45" shape-rendering="geometricPrecision" font-family="sans-serif" transform="matrix(0.927,0,0,0.927,-307.7685,53.7668)" stroke-linecap="butt">
      <text x="1005.8344" xml:space="preserve" y="468.3882" clip-path="url(#clipPath2)" stroke="none">TB3</text>
    </g>
    <g stroke-linecap="butt" transform="matrix(0.927,0,0,0.927,-307.7685,53.7668)" fill="red" text-rendering="geometricPrecision" shape-rendering="geometricPrecision" stroke-dasharray="6,2" stroke="red" stroke-miterlimit="1.45">
      <rect fill="none" x="583.5935" width="12.18" height="564.01" y="200.6221" clip-path="url(#clipPath2)"/>
    </g>
    <g text-rendering="geometricPrecision" stroke-miterlimit="1.45" shape-rendering="geometricPrecision" font-family="sans-serif" transform="matrix(0.927,0,0,0.927,-307.7685,53.7668)" stroke-linecap="butt">
      <text x="578.6796" xml:space="preserve" y="233.5969" clip-path="url(#clipPath2)" stroke="none">TB1</text>
    </g>
    <g stroke-linecap="butt" transform="matrix(0.927,0,0,0.927,-307.7685,53.7668)" fill="red" text-rendering="geometricPrecision" shape-rendering="geometricPrecision" stroke-dasharray="6,2" stroke="red" stroke-miterlimit="1.45">
      <rect fill="none" x="857.1073" width="12.18" height="315.4092" y="398.4487" clip-path="url(#clipPath2)"/>
    </g>
    <g text-rendering="geometricPrecision" stroke-miterlimit="1.45" shape-rendering="geometricPrecision" font-family="sans-serif" transform="matrix(0.927,0,0,0.927,-307.7685,53.7668)" stroke-linecap="butt">
      <text x="852.1934" xml:space="preserve" y="578.4553" clip-path="url(#clipPath2)" stroke="none">TB2</text>
    </g>
    <g stroke-linecap="round" transform="matrix(0.927,0,0,0.927,-307.7685,53.7668)" stroke-dashoffset="2" text-rendering="geometricPrecision" shape-rendering="geometricPrecision" stroke-dasharray="0,4" stroke-miterlimit="1.45">
      <rect fill="none" x="342.9416" width="200.68" height="342.987" y="329.3092" clip-path="url(#clipPath2)"/>
    </g>
    <g fill="rgb(204,255,204)" text-rendering="geometricPrecision" shape-rendering="geometricPrecision" transform="matrix(0.927,0,0,0.927,-307.7685,53.7668)" stroke="rgb(204,255,204)">
      <rect x="974.6587" width="149.1406" height="52" y="342.9801" clip-path="url(#clipPath2)" stroke="none"/>
    </g>
    <g text-rendering="geometricPrecision" stroke-miterlimit="1.45" shape-rendering="geometricPrecision" transform="matrix(0.927,0,0,0.927,-307.7685,53.7668)" stroke-linecap="butt">
      <rect fill="none" x="974.6587" width="149.1406" height="52" y="342.9801" clip-path="url(#clipPath2)"/>
      <text x="1002.2104" xml:space="preserve" y="373.6939" clip-path="url(#clipPath2)" font-family="sans-serif" stroke="none">Trusted Service 1</text>
    </g>
    <g fill="rgb(204,255,204)" text-rendering="geometricPrecision" shape-rendering="geometricPrecision" transform="matrix(0.927,0,0,0.927,-307.7685,53.7668)" stroke="rgb(204,255,204)">
      <rect x="974.6587" width="149.1406" height="52" y="631.902" clip-path="url(#clipPath2)" stroke="none"/>
    </g>
    <g text-rendering="geometricPrecision" stroke-miterlimit="1.45" shape-rendering="geometricPrecision" transform="matrix(0.927,0,0,0.927,-307.7685,53.7668)" stroke-linecap="butt">
      <rect fill="none" x="974.6587" width="149.1406" height="52" y="631.902" clip-path="url(#clipPath2)"/>
      <text x="1002.2104" xml:space="preserve" y="662.6158" clip-path="url(#clipPath2)" font-family="sans-serif" stroke="none">Trusted Service 2</text>
    </g>
    <g fill="rgb(204,204,204)" text-rendering="geometricPrecision" shape-rendering="geometricPrecision" transform="matrix(0.927,0,0,0.927,-307.7685,53.7668)" stroke="rgb(204,204,204)">
      <rect x="656.595" width="149.1406" height="95.371" y="434.9416" clip-path="url(#clipPath2)" stroke="none"/>
    </g>
    <g text-rendering="geometricPrecision" stroke-miterlimit="1.45" shape-rendering="geometricPrecision" transform="matrix(0.927,0,0,0.927,-307.7685,53.7668)" stroke-linecap="butt">
      <rect fill="none" x="656.595" width="149.1406" height="95.371" y="434.9416" clip-path="url(#clipPath2)"/>
      <text x="718.1633" xml:space="preserve" y="487.341" clip-path="url(#clipPath2)" font-family="sans-serif" stroke="none">SPM</text>
    </g>
    <g fill="rgb(255,221,86)" text-rendering="geometricPrecision" shape-rendering="geometricPrecision" transform="matrix(0.927,0,0,0.927,-307.7685,53.7668)" stroke="rgb(255,221,86)">
      <rect x="367.4203" width="149.1406" height="52" y="346.1595" clip-path="url(#clipPath2)" stroke="none"/>
    </g>
    <g text-rendering="geometricPrecision" stroke-miterlimit="1.45" shape-rendering="geometricPrecision" transform="matrix(0.927,0,0,0.927,-307.7685,53.7668)" stroke-linecap="butt">
      <rect fill="none" x="367.4203" width="149.1406" height="52" y="346.1595" clip-path="url(#clipPath2)"/>
      <text x="407.6371" xml:space="preserve" y="376.8734" clip-path="url(#clipPath2)" font-family="sans-serif" stroke="none">u-boot/EDK2</text>
    </g>
    <g fill="rgb(255,221,86)" text-rendering="geometricPrecision" shape-rendering="geometricPrecision" transform="matrix(0.927,0,0,0.927,-307.7685,53.7668)" stroke="rgb(255,221,86)">
      <rect x="367.4203" width="149.1406" height="52" y="415.1892" clip-path="url(#clipPath2)" stroke="none"/>
    </g>
    <g text-rendering="geometricPrecision" stroke-miterlimit="1.45" shape-rendering="geometricPrecision" transform="matrix(0.927,0,0,0.927,-307.7685,53.7668)" stroke-linecap="butt">
      <rect fill="none" x="367.4203" width="149.1406" height="52" y="415.1892" clip-path="url(#clipPath2)"/>
      <text x="394.9721" xml:space="preserve" y="445.9031" clip-path="url(#clipPath2)" font-family="sans-serif" stroke="none">Operating system</text>
    </g>
    <g fill="rgb(255,221,86)" text-rendering="geometricPrecision" shape-rendering="geometricPrecision" transform="matrix(0.927,0,0,0.927,-307.7685,53.7668)" stroke="rgb(255,221,86)">
      <rect x="367.4203" width="149.1406" height="52" y="496.9892" clip-path="url(#clipPath2)" stroke="none"/>
    </g>
    <g text-rendering="geometricPrecision" stroke-miterlimit="1.45" shape-rendering="geometricPrecision" transform="matrix(0.927,0,0,0.927,-307.7685,53.7668)" stroke-linecap="butt">
      <rect fill="none" x="367.4203" width="149.1406" height="52" y="496.9892" clip-path="url(#clipPath2)"/>
      <text x="380.9594" xml:space="preserve" y="527.7031" clip-path="url(#clipPath2)" font-family="sans-serif" stroke="none">User-space application</text>
    </g>
    <g fill="rgb(204,204,204)" text-rendering="geometricPrecision" shape-rendering="geometricPrecision" transform="matrix(0.927,0,0,0.927,-307.7685,53.7668)" stroke="rgb(204,204,204)">
      <rect x="625.7735" width="149.1406" height="52" y="631.902" clip-path="url(#clipPath2)" stroke="none"/>
    </g>
    <g text-rendering="geometricPrecision" stroke-miterlimit="1.45" shape-rendering="geometricPrecision" transform="matrix(0.927,0,0,0.927,-307.7685,53.7668)" stroke-linecap="butt">
      <rect fill="none" x="625.7735" width="149.1406" height="52" y="631.902" clip-path="url(#clipPath2)"/>
      <text x="662.671" xml:space="preserve" y="662.6158" clip-path="url(#clipPath2)" font-family="sans-serif" stroke="none">FF-A Manifest</text>
    </g>
    <g fill="rgb(204,255,204)" text-rendering="geometricPrecision" shape-rendering="geometricPrecision" transform="matrix(0.927,0,0,0.927,-307.7685,53.7668)" stroke="rgb(204,255,204)">
      <path d="M993.5156 245.6201 L1105.9108 245.6201 L1093.4224 297.6201 L981.0273 297.6201 Z" fill-rule="evenodd" clip-path="url(#clipPath2)" stroke="none"/>
    </g>
    <g text-rendering="geometricPrecision" stroke-miterlimit="1.45" shape-rendering="geometricPrecision" transform="matrix(0.927,0,0,0.927,-307.7685,53.7668)" stroke-linecap="butt">
      <path fill="none" d="M993.5156 245.6201 L1105.9108 245.6201 L1093.4224 297.6201 L981.0273 297.6201 Z" fill-rule="evenodd" clip-path="url(#clipPath2)"/>
      <text x="1014.7844" xml:space="preserve" y="261.6328" clip-path="url(#clipPath2)" font-family="sans-serif" stroke="none">Dedicated,</text>
      <text x="990.1106" xml:space="preserve" y="276.334" clip-path="url(#clipPath2)" font-family="sans-serif" stroke="none">Physically protected</text>
      <text x="1033.4729" xml:space="preserve" y="291.0351" clip-path="url(#clipPath2)" font-family="sans-serif" stroke="none">HW</text>
    </g>
    <g fill="rgb(204,204,204)" text-rendering="geometricPrecision" shape-rendering="geometricPrecision" transform="matrix(0.927,0,0,0.927,-307.7685,53.7668)" stroke="rgb(204,204,204)">
      <rect x="691.3269" width="149.1406" height="52" y="554.354" clip-path="url(#clipPath2)" stroke="none"/>
    </g>
    <g text-rendering="geometricPrecision" stroke-miterlimit="1.45" shape-rendering="geometricPrecision" transform="matrix(0.927,0,0,0.927,-307.7685,53.7668)" stroke-linecap="butt">
      <rect fill="none" x="691.3269" width="149.1406" height="52" y="554.354" clip-path="url(#clipPath2)"/>
      <text x="738.2117" xml:space="preserve" y="585.0678" clip-path="url(#clipPath2)" font-family="sans-serif" stroke="none">Debug-log</text>
    </g>
    <g fill="rgb(204,255,204)" text-rendering="geometricPrecision" shape-rendering="geometricPrecision" transform="matrix(0.927,0,0,0.927,-307.7685,53.7668)" stroke="rgb(204,255,204)">
      <path d="M1188.1769 356.8001 L1281.5972 356.8001 L1271.2172 381.1601 L1177.7968 381.1601 Z" fill-rule="evenodd" clip-path="url(#clipPath2)" stroke="none"/>
    </g>
    <g text-rendering="geometricPrecision" stroke-miterlimit="1.45" shape-rendering="geometricPrecision" transform="matrix(0.927,0,0,0.927,-307.7685,53.7668)" stroke-linecap="butt">
      <path fill="none" d="M1188.1769 356.8001 L1281.5972 356.8001 L1271.2172 381.1601 L1177.7968 381.1601 Z" fill-rule="evenodd" clip-path="url(#clipPath2)"/>
      <text x="1187.6794" xml:space="preserve" y="373.6939" clip-path="url(#clipPath2)" font-family="sans-serif" stroke="none">Peripheral IFC2</text>
    </g>
    <g fill="rgb(221,213,95)" text-rendering="geometricPrecision" shape-rendering="geometricPrecision" transform="matrix(0.927,0,0,0.927,-307.7685,53.7668)" stroke="rgb(221,213,95)">
      <path d="M1372.0742 333.3651 L1513.7969 333.3651 L1498.0499 404.5951 L1356.3271 404.5951 Z" fill-rule="evenodd" clip-path="url(#clipPath2)" stroke="none"/>
    </g>
    <g text-rendering="geometricPrecision" stroke-miterlimit="1.45" shape-rendering="geometricPrecision" transform="matrix(0.927,0,0,0.927,-307.7685,53.7668)" stroke-linecap="butt">
      <path fill="none" d="M1372.0742 333.3651 L1513.7969 333.3651 L1498.0499 404.5951 L1356.3271 404.5951 Z" fill-rule="evenodd" clip-path="url(#clipPath2)"/>
      <text x="1406.3774" xml:space="preserve" y="358.9928" clip-path="url(#clipPath2)" font-family="sans-serif" stroke="none">Dedicated,</text>
      <text x="1371.3647" xml:space="preserve" y="373.6939" clip-path="url(#clipPath2)" font-family="sans-serif" stroke="none">Not physically protected</text>
      <text x="1425.0659" xml:space="preserve" y="388.3951" clip-path="url(#clipPath2)" font-family="sans-serif" stroke="none">HW</text>
    </g>
    <g fill="rgb(188,221,95)" text-rendering="geometricPrecision" shape-rendering="geometricPrecision" transform="matrix(0.927,0,0,0.927,-307.7685,53.7668)" stroke="rgb(188,221,95)">
      <path d="M1102.743 490.9227 L1230.5972 490.9227 L1216.3912 542.9227 L1088.5371 542.9227 Z" fill-rule="evenodd" clip-path="url(#clipPath2)" stroke="none"/>
    </g>
    <g text-rendering="geometricPrecision" stroke-miterlimit="1.45" shape-rendering="geometricPrecision" transform="matrix(0.927,0,0,0.927,-307.7685,53.7668)" stroke-linecap="butt">
      <path fill="none" d="M1102.743 490.9227 L1230.5972 490.9227 L1216.3912 542.9227 L1088.5371 542.9227 Z" fill-rule="evenodd" clip-path="url(#clipPath2)"/>
      <text x="1119.2048" xml:space="preserve" y="506.9354" clip-path="url(#clipPath2)" font-family="sans-serif" stroke="none">Non dedicated,</text>
      <text x="1106.2087" xml:space="preserve" y="521.6366" clip-path="url(#clipPath2)" font-family="sans-serif" stroke="none">Physically protected</text>
      <text x="1149.571" xml:space="preserve" y="536.3378" clip-path="url(#clipPath2)" font-family="sans-serif" stroke="none">HW</text>
    </g>
    <g fill="rgb(221,213,95)" text-rendering="geometricPrecision" shape-rendering="geometricPrecision" transform="matrix(0.927,0,0,0.927,-307.7685,53.7668)" stroke="rgb(221,213,95)">
      <path d="M1372.0742 481.3077 L1513.7969 481.3077 L1498.0499 552.5378 L1356.3271 552.5378 Z" fill-rule="evenodd" clip-path="url(#clipPath2)" stroke="none"/>
    </g>
    <g text-rendering="geometricPrecision" stroke-miterlimit="1.45" shape-rendering="geometricPrecision" transform="matrix(0.927,0,0,0.927,-307.7685,53.7668)" stroke-linecap="butt">
      <path fill="none" d="M1372.0742 481.3077 L1513.7969 481.3077 L1498.0499 552.5378 L1356.3271 552.5378 Z" fill-rule="evenodd" clip-path="url(#clipPath2)"/>
      <text x="1394.6997" xml:space="preserve" y="506.9354" clip-path="url(#clipPath2)" font-family="sans-serif" stroke="none">Non dedicated,</text>
      <text x="1371.3647" xml:space="preserve" y="521.6366" clip-path="url(#clipPath2)" font-family="sans-serif" stroke="none">Not physically protected</text>
      <text x="1425.0659" xml:space="preserve" y="536.3378" clip-path="url(#clipPath2)" font-family="sans-serif" stroke="none">HW</text>
      <rect x="999.8344" y="563.9227" clip-path="url(#clipPath2)" fill="none" width="167.68" stroke-dasharray="6,2" height="12.4968" stroke="red"/>
      <text x="1007.5856" xml:space="preserve" y="574.885" clip-path="url(#clipPath2)" font-family="sans-serif" stroke="none">TB4</text>
      <rect x="1318.6322" y="307.6919" clip-path="url(#clipPath2)" fill="none" width="12.18" stroke-dasharray="6,2" height="355.147" stroke="red"/>
      <text x="1313.7183" xml:space="preserve" y="489.9792" clip-path="url(#clipPath2)" font-family="sans-serif" stroke="none">TB5</text>
      <path fill="none" d="M966.9668 392.4953 L789 443.3683 L670 453.0932 L551.6387 448.2875" clip-path="url(#clipPath2)"/>
      <path d="M974.6587 390.2965 L961.7466 388.7872 L966.0053 392.7701 L964.4951 398.4021 Z" clip-path="url(#clipPath2)" stroke="none"/>
      <path d="M543.6453 447.963 L555.4326 453.4457 L552.6379 448.3281 L555.8383 443.4539 Z" clip-path="url(#clipPath2)" stroke="none"/>
      <rect x="881.3447" y="403.8084" clip-path="url(#clipPath2)" fill="white" width="26.6699" height="18.7012" stroke="none"/>
      <text x="883.3447" xml:space="preserve" y="417.8729" clip-path="url(#clipPath2)" font-family="sans-serif" stroke="none">DF2</text>
      <path fill="none" d="M966.6587 368.9801 L551.6295 368.9801" clip-path="url(#clipPath2)"/>
      <path d="M974.6587 368.9801 L962.6587 363.9801 L965.6587 368.9801 L962.6587 373.9801 Z" clip-path="url(#clipPath2)" stroke="none"/>
      <path d="M543.6295 368.9801 L555.6295 373.9801 L552.6295 368.9801 L555.6295 363.9801 Z" clip-path="url(#clipPath2)" stroke="none"/>
      <rect x="745.8052" y="359.6295" clip-path="url(#clipPath2)" fill="white" width="26.6699" height="18.7012" stroke="none"/>
      <text x="747.8052" xml:space="preserve" y="373.6939" clip-path="url(#clipPath2)" font-family="sans-serif" stroke="none">DF1</text>
      <path fill="none" d="M988.196 398.4595 L770.0981 503.8027 L995.1298 628.0355" clip-path="url(#clipPath2)"/>
      <path d="M995.3997 394.9801 L982.4195 395.697 L987.2955 398.8945 L986.7689 404.7016 Z" clip-path="url(#clipPath2)" stroke="none"/>
      <path d="M1002.1334 631.902 L994.0445 621.725 L994.2543 627.5522 L989.2114 630.4796 Z" clip-path="url(#clipPath2)" stroke="none"/>
      <rect x="888.045" y="431.0419" clip-path="url(#clipPath2)" fill="white" width="26.6699" height="18.7012" stroke="none"/>
      <text x="890.0449" xml:space="preserve" y="445.1063" clip-path="url(#clipPath2)" font-family="sans-serif" stroke="none">DF3</text>
      <path fill="none" d="M1049.229 623.902 L1049.229 402.9801" clip-path="url(#clipPath2)"/>
      <path d="M1049.229 631.902 L1054.229 619.902 L1049.229 622.902 L1044.229 619.902 Z" clip-path="url(#clipPath2)" stroke="none"/>
      <path d="M1049.229 394.9801 L1044.229 406.9801 L1049.229 403.9801 L1054.229 406.9801 Z" clip-path="url(#clipPath2)" stroke="none"/>
      <rect x="1035.894" y="504.0904" clip-path="url(#clipPath2)" fill="white" width="26.6699" height="18.7012" stroke="none"/>
      <text x="1037.894" xml:space="preserve" y="518.1549" clip-path="url(#clipPath2)" font-family="sans-serif" stroke="none">DF5</text>
    </g>
    <g stroke-linecap="round" transform="matrix(0.927,0,0,0.927,-307.7685,53.7668)" stroke-dashoffset="2" text-rendering="geometricPrecision" shape-rendering="geometricPrecision" stroke-dasharray="0,8" stroke-width="2" stroke-miterlimit="1.45">
      <path fill="none" d="M648.8088 530.3726 L551.4188 586.8336" clip-path="url(#clipPath2)"/>
      <path d="M656.595 525.8586 L642.0945 527.7632 L647.8356 530.9368 L647.737 537.4959 Z" clip-path="url(#clipPath2)" stroke="none"/>
      <path d="M543.6326 591.3475 L558.1331 589.443 L552.3921 586.2693 L552.4907 579.7103 Z" clip-path="url(#clipPath2)" stroke="none"/>
      <rect x="583.4364" y="549.2557" clip-path="url(#clipPath2)" fill="white" width="33.3438" height="18.7012" stroke="none"/>
    </g>
    <g text-rendering="geometricPrecision" stroke-miterlimit="1.45" shape-rendering="geometricPrecision" font-family="sans-serif" transform="matrix(0.927,0,0,0.927,-307.7685,53.7668)" stroke-linecap="butt">
      <text x="585.4364" xml:space="preserve" y="563.3201" clip-path="url(#clipPath2)" stroke="none">DF12</text>
      <path fill="none" d="M658.6537 624.0746 L691.1032 467.8364 L817.5275 456.7221 L973.0889 397.8132" clip-path="url(#clipPath2)"/>
      <path d="M657.0269 631.9074 L664.3627 621.1749 L658.8571 623.0955 L654.5716 619.1414 Z" clip-path="url(#clipPath2)" stroke="none"/>
      <path d="M980.5704 394.9801 L967.5775 394.5538 L972.1537 398.1674 L971.1188 403.9058 Z" clip-path="url(#clipPath2)" stroke="none"/>
      <rect x="817.5269" y="440.4252" clip-path="url(#clipPath2)" fill="white" width="33.3438" height="18.7012" stroke="none"/>
      <text x="819.5269" xml:space="preserve" y="454.4896" clip-path="url(#clipPath2)" stroke="none">DF13</text>
      <path fill="none" d="M1047.2183 334.994 L1045.4813 305.6344" clip-path="url(#clipPath2)"/>
      <path d="M1047.6908 342.9801 L1051.9733 330.7057 L1047.1592 333.9958 L1041.9907 331.2964 Z" clip-path="url(#clipPath2)" stroke="none"/>
      <path d="M1045.0089 297.6483 L1040.7262 309.9227 L1045.5404 306.6326 L1050.7089 309.3322 Z" clip-path="url(#clipPath2)" stroke="none"/>
      <path fill="none" d="M1013.0703 400.2091 L923 478 L754.0339 478 L761.9626 546.4072" clip-path="url(#clipPath2)"/>
      <path d="M1019.1248 394.9801 L1006.7749 399.0396 L1012.3135 400.8628 L1013.3112 406.6077 Z" clip-path="url(#clipPath2)" stroke="none"/>
      <path d="M762.8837 554.3539 L766.4688 541.8581 L761.8475 545.4138 L756.5353 543.0094 Z" clip-path="url(#clipPath2)" stroke="none"/>
      <rect x="949.4195" y="434.3147" clip-path="url(#clipPath2)" fill="white" width="26.6699" height="18.7012" stroke="none"/>
      <text x="951.4195" xml:space="preserve" y="448.3792" clip-path="url(#clipPath2)" stroke="none">DF4</text>
      <path fill="none" d="M1131.7993 368.9801 L1174.979 368.9801" clip-path="url(#clipPath2)"/>
      <path d="M1123.7993 368.9801 L1135.7993 373.9801 L1132.7993 368.9801 L1135.7993 363.9801 Z" clip-path="url(#clipPath2)" stroke="none"/>
      <path d="M1182.979 368.9801 L1170.979 363.9801 L1173.979 368.9801 L1170.979 373.9801 Z" clip-path="url(#clipPath2)" stroke="none"/>
      <rect x="1137.4631" y="359.6295" clip-path="url(#clipPath2)" fill="white" width="26.6699" height="18.7012" stroke="none"/>
      <text x="1139.4631" xml:space="preserve" y="373.6939" clip-path="url(#clipPath2)" stroke="none">DF8</text>
      <path fill="none" d="M1284.4005 368.9801 L1356.2144 368.9801" clip-path="url(#clipPath2)"/>
      <path d="M1276.4005 368.9801 L1288.4005 373.9801 L1285.4005 368.9801 L1288.4005 363.9801 Z" clip-path="url(#clipPath2)" stroke="none"/>
      <path d="M1364.2144 368.9801 L1352.2144 363.9801 L1355.2144 368.9801 L1352.2144 373.9801 Z" clip-path="url(#clipPath2)" stroke="none"/>
      <rect x="1302.2903" y="359.6295" clip-path="url(#clipPath2)" fill="white" width="33.3438" height="18.7012" stroke="none"/>
      <text x="1304.2903" xml:space="preserve" y="373.6939" clip-path="url(#clipPath2)" stroke="none">DF11</text>
      <path fill="none" d="M1074.5087 625.6021 L1134.2703 549.2445" clip-path="url(#clipPath2)"/>
      <path d="M1069.578 631.902 L1080.9114 625.5338 L1075.125 624.8146 L1073.0365 619.3705 Z" clip-path="url(#clipPath2)" stroke="none"/>
      <path d="M1139.2009 542.9446 L1127.8676 549.3128 L1133.6539 550.032 L1135.7423 555.4761 Z" clip-path="url(#clipPath2)" stroke="none"/>
      <rect x="1091.0631" y="578.0618" clip-path="url(#clipPath2)" fill="white" width="26.6699" height="18.7012" stroke="none"/>
      <text x="1093.0631" xml:space="preserve" y="592.1262" clip-path="url(#clipPath2)" stroke="none">DF7</text>
      <path fill="none" d="M1073.4031 401.3929 L1135.4004 484.5197" clip-path="url(#clipPath2)"/>
      <path d="M1068.6202 394.9801 L1071.7865 407.5886 L1074.001 402.1945 L1079.8025 401.61 Z" clip-path="url(#clipPath2)" stroke="none"/>
      <path d="M1140.1832 490.9325 L1137.017 478.324 L1134.8025 483.718 L1129.001 484.3025 Z" clip-path="url(#clipPath2)" stroke="none"/>
      <rect x="1091.6177" y="433.6008" clip-path="url(#clipPath2)" fill="white" width="26.6699" height="18.7012" stroke="none"/>
      <text x="1093.6177" xml:space="preserve" y="447.6653" clip-path="url(#clipPath2)" stroke="none">DF6</text>
      <path fill="none" d="M1124.5065 397.8442 L1362.2559 489.0061" clip-path="url(#clipPath2)"/>
      <path d="M1117.0367 394.9801 L1126.4512 403.9449 L1125.4402 398.2022 L1130.0314 394.6078 Z" clip-path="url(#clipPath2)" stroke="none"/>
      <path d="M1369.7256 491.8703 L1360.3112 482.9055 L1361.3221 488.6481 L1356.731 492.2426 Z" clip-path="url(#clipPath2)" stroke="none"/>
      <rect x="1226.7283" y="432.8024" clip-path="url(#clipPath2)" fill="white" width="26.6699" height="18.7012" stroke="none"/>
      <text x="1228.7283" xml:space="preserve" y="446.8669" clip-path="url(#clipPath2)" stroke="none">DF9</text>
      <path fill="none" d="M1127.9001 629.1564 L1350.4539 547.8376" clip-path="url(#clipPath2)"/>
      <path d="M1120.386 631.902 L1133.3732 632.4799 L1128.8394 628.8132 L1129.9412 623.0873 Z" clip-path="url(#clipPath2)" stroke="none"/>
      <path d="M1357.968 545.0921 L1344.9808 544.5142 L1349.5146 548.1808 L1348.4128 553.9068 Z" clip-path="url(#clipPath2)" stroke="none"/>
      <rect x="1223.3914" y="578.8226" clip-path="url(#clipPath2)" fill="white" width="33.3438" height="18.7012" stroke="none"/>
      <text x="1225.3914" xml:space="preserve" y="592.887" clip-path="url(#clipPath2)" stroke="none">DF10</text>
    </g>
    <g fill="rgb(235,235,235)" text-rendering="geometricPrecision" shape-rendering="geometricPrecision" transform="matrix(0.927,0,0,0.927,-307.7685,53.7668)" stroke="rgb(235,235,235)">
      <rect x="747.7326" width="475.4228" height="22.3765" y="-14.1108" clip-path="url(#clipPath2)" stroke="none"/>
    </g>
    <g font-size="15px" stroke-linecap="butt" transform="matrix(0.927,0,0,0.927,-307.7685,53.7668)" text-rendering="geometricPrecision" font-family="sans-serif" shape-rendering="geometricPrecision" stroke-miterlimit="1.45">
      <text x="949.1744" xml:space="preserve" y="2.9698" clip-path="url(#clipPath2)" stroke="none">Color code</text>
      <rect x="747.7326" y="-14.1108" clip-path="url(#clipPath2)" fill="none" width="475.4228" stroke-dasharray="6,2" rx="4" ry="4" height="188.8418"/>
    </g>
    <g fill="rgb(204,255,204)" text-rendering="geometricPrecision" shape-rendering="geometricPrecision" transform="matrix(0.927,0,0,0.927,-307.7685,53.7668)" stroke="rgb(204,255,204)">
      <rect x="762.8989" width="200.5968" height="30" y="23.2657" clip-path="url(#clipPath2)" stroke="none"/>
    </g>
    <g text-rendering="geometricPrecision" stroke-miterlimit="1.45" shape-rendering="geometricPrecision" transform="matrix(0.927,0,0,0.927,-307.7685,53.7668)" stroke-linecap="butt">
      <rect fill="none" x="762.8989" width="200.5968" height="30" y="23.2657" clip-path="url(#clipPath2)"/>
      <text x="807.8292" xml:space="preserve" y="42.9795" clip-path="url(#clipPath2)" font-family="sans-serif" stroke="none">Isolated components</text>
    </g>
    <g fill="rgb(221,213,95)" text-rendering="geometricPrecision" shape-rendering="geometricPrecision" transform="matrix(0.927,0,0,0.927,-307.7685,53.7668)" stroke="rgb(221,213,95)">
      <rect x="762.8158" width="200.68" height="30" y="128.8507" clip-path="url(#clipPath2)" stroke="none"/>
    </g>
    <g text-rendering="geometricPrecision" stroke-miterlimit="1.45" shape-rendering="geometricPrecision" transform="matrix(0.927,0,0,0.927,-307.7685,53.7668)" stroke-linecap="butt">
      <rect fill="none" x="762.8158" width="200.68" height="30" y="128.8507" clip-path="url(#clipPath2)"/>
      <text x="789.4507" xml:space="preserve" y="148.5646" clip-path="url(#clipPath2)" font-family="sans-serif" stroke="none">Exposed to physical access</text>
    </g>
    <g fill="rgb(188,221,95)" text-rendering="geometricPrecision" shape-rendering="geometricPrecision" transform="matrix(0.927,0,0,0.927,-307.7685,53.7668)" stroke="rgb(188,221,95)">
      <rect x="762.7326" width="200.7632" height="30" y="76.0582" clip-path="url(#clipPath2)" stroke="none"/>
    </g>
    <g text-rendering="geometricPrecision" stroke-miterlimit="1.45" shape-rendering="geometricPrecision" transform="matrix(0.927,0,0,0.927,-307.7685,53.7668)" stroke-linecap="butt">
      <rect fill="none" x="762.7326" width="200.7632" height="30" y="76.0582" clip-path="url(#clipPath2)"/>
      <text x="812.079" xml:space="preserve" y="95.7721" clip-path="url(#clipPath2)" font-family="sans-serif" stroke="none">Isolated but shared</text>
    </g>
    <g fill="rgb(204,204,204)" text-rendering="geometricPrecision" shape-rendering="geometricPrecision" transform="matrix(0.927,0,0,0.927,-307.7685,53.7668)" stroke="rgb(204,204,204)">
      <rect x="993.4958" width="200.7632" height="30" y="76.0582" clip-path="url(#clipPath2)" stroke="none"/>
    </g>
    <g text-rendering="geometricPrecision" stroke-miterlimit="1.45" shape-rendering="geometricPrecision" transform="matrix(0.927,0,0,0.927,-307.7685,53.7668)" stroke-linecap="butt">
      <rect fill="none" x="993.4958" width="200.7632" height="30" y="76.0582" clip-path="url(#clipPath2)"/>
      <text x="1014.5092" xml:space="preserve" y="95.7721" clip-path="url(#clipPath2)" font-family="sans-serif" stroke="none">Out-of-scope, must be trusted</text>
    </g>
    <g fill="rgb(255,221,86)" text-rendering="geometricPrecision" shape-rendering="geometricPrecision" transform="matrix(0.927,0,0,0.927,-307.7685,53.7668)" stroke="rgb(255,221,86)">
      <rect x="993.4958" width="200.7632" height="30" y="23.2657" clip-path="url(#clipPath2)" stroke="none"/>
    </g>
    <g text-rendering="geometricPrecision" stroke-miterlimit="1.45" shape-rendering="geometricPrecision" transform="matrix(0.927,0,0,0.927,-307.7685,53.7668)" stroke-linecap="butt">
      <rect fill="none" x="993.4958" width="200.7632" height="30" y="23.2657" clip-path="url(#clipPath2)"/>
      <text x="1060.1918" xml:space="preserve" y="42.9795" clip-path="url(#clipPath2)" font-family="sans-serif" stroke="none">Non-isolated</text>
    </g>
  </g>
</svg>
